<svg version="1.2" xmlns="http://www.w3.org/2000/svg" viewBox="-143.00000008 5.999671979300004 445.4619277593015 38.83541519357974" width="447" height="40"><style>.a{fill:#2c2d3c}</style><path class="a" d="m76.7 44.5h5.5c0.5 0 0.8-0.4 0.6-0.9l-12.5-25.1c0-0.2-0.4-0.3-0.6-0.3h-4.3c-0.2 0-0.6 0.1-0.7 0.3l-10.7 25.1c-0.1 0.5 0.2 0.9 0.7 0.9h17.9c0.6 0 0.9-0.4 0.7-0.9l-2-4c-0.1-0.2-0.3-0.4-0.6-0.4l-7.4 0.1c-0.4 0-0.7-0.4-0.5-0.8l4.3-10.2c0.2-0.6 1-0.6 1.2 0l7.9 15.9c0.1 0.2 0.3 0.3 0.5 0.3z"/><path class="a" d="m105.1 18.2h-2.8c-0.7 0-1.2 0.6-1.2 1.2l-0.2 13.5c0 4.1-2.5 6.5-6.2 6.6-3.6-0.2-5.8-2.5-5.8-6.5l-0.3-13.6c0-0.6-0.5-1.2-1.1-1.2h-2.9c-0.6 0-1.1 0.6-1.1 1.2l0.2 13.5c0 6.6 4.5 11.5 10.9 11.7q0.2 0 0.5 0c6.4-0.2 10.9-5.1 11-11.7l0.1-13.5c0-0.6-0.5-1.3-1.1-1.2z"/><path class="a" d="m110.1 36.2c0-0.7 0.5-1.2 1.3-1.2h2.7c0.7 0 1.3 0.4 1.3 1.1 0.1 2.4 2.2 3.6 6.1 3.6 5.6 0 5.6-2 5.6-2.9 0-1.2-1.7-1.8-3.4-2.4-6.1-1.9-12.9-2.4-12.8-8.6 0-4.4 3.5-7.8 10.3-7.8 6.3 0 10.6 3.2 10.5 8.1 0 0.7-0.5 1.2-1.2 1.2h-2.8c-2.4 0 0.7-4.3-6.8-4.3-4.4 0-4.9 1.8-4.9 3 0 2.3 9.5 2.9 13.2 5.3 2 1.3 3.1 3.1 3.1 5.4-0.2 5.1-4.2 8.1-10.8 8.1-6.7 0-11.5-3.1-11.4-8.6z"/><path class="a" d="m254.1 36.2c0-0.7 0.6-1.2 1.3-1.2h2.8c0.7 0 1.2 0.4 1.2 1.1 0.1 2.4 2.3 3.6 6.3 3.6 5.4 0 5.4-2 5.4-2.9 0-1.2-1.5-1.8-3.3-2.4-6.1-1.9-12.9-2.4-12.8-8.6 0.1-4.4 3.5-7.8 10.2-7.8 6.3 0 10.6 3.2 10.6 8.1 0 0.7-0.6 1.2-1.3 1.2h-2.8c-2.2 0 0.7-4.3-6.7-4.3-4.5 0-4.8 1.8-5 3 0 2.3 9.6 2.9 13.2 5.3 2.1 1.3 3.2 3.1 3.1 5.4 0 5.1-4.1 8.1-10.7 8.1-6.6 0-11.5-3.1-11.5-8.6z"/><path class="a" d="m155.7 18.3h-20.4q-0.7 0-0.7 0.7v4c0 0.3 0.3 0.6 0.7 0.6h6.9c0.3 0 0.7 0.4 0.7 0.7v19.7c0 0.4 0.2 0.7 0.6 0.7h4c0.3 0 0.7-0.3 0.7-0.7v-19.7c0-0.3 0.3-0.7 0.6-0.7h6.9c0.4 0 0.7-0.3 0.7-0.6v-4c0-0.5-0.3-0.7-0.7-0.7z"/><path class="a" d="m160 18.3h4q0.6 0 0.6 0.7v25.2c0 0.3-0.2 0.6-0.6 0.6h-4c-0.4 0-0.7-0.3-0.7-0.6v-25.2c0-0.5 0.3-0.7 0.7-0.7z"/><path class="a" d="m230.7 18.1h18.7q0.7 0 0.7 0.7v4q0 0.6-0.7 0.6h-18.7q-0.6 0-0.6-0.6v-4q0-0.7 0.6-0.7z"/><path class="a" d="m230.7 28.7h18.7q0.7 0 0.7 0.7v4q0 0.6-0.7 0.6h-18.7q-0.6 0-0.6-0.6v-4q0-0.7 0.6-0.7z"/><path class="a" d="m230.7 39.3h18.7q0.7 0 0.7 0.7v4q0 0.6-0.7 0.6h-18.7q-0.6 0-0.6-0.6v-4q0-0.7 0.6-0.7z"/><path class="a" d="m192.6 18.3h-4.1c-0.3 0-0.6 0.2-0.6 0.7v14.6c0 0.5-0.8 0.8-1.2 0.3l-11.6-15.4q-0.1-0.1-0.2-0.1-0.2-0.1-0.4-0.1h-3.9c-0.4 0-0.6 0.2-0.6 0.7v25.2c0 0.3 0.2 0.6 0.6 0.6h4.1c0.3 0 0.6-0.2 0.6-0.6v-14.6c0-0.7 0.8-0.9 1.2-0.5l11.4 15.4c0.2 0.2 0.4 0.3 0.7 0.3q0 0 0.1 0h3.9c0.4 0 0.7-0.2 0.7-0.6v-25.2c0-0.5-0.3-0.7-0.7-0.7z"/><path class="a" d="m297.2 19v9.1c0 0.4-0.4 0.6-0.8 0.6h-9.8q-0.7 0-0.7-0.6v-9.1c0-0.5-0.3-0.7-0.6-0.7h-4.2c-0.3 0-0.6 0.2-0.6 0.7v25.2c0 0.3 0.3 0.6 0.6 0.6h4.2c0.3 0 0.6-0.3 0.6-0.6v-9.4c0-0.4 0.2-0.7 0.7-0.7h9.8c0.4 0 0.8 0.3 0.8 0.7v9.4c0 0.3 0.2 0.6 0.6 0.6h4c0.3 0 0.7-0.3 0.7-0.6v-25.2c0-0.5-0.4-0.7-0.7-0.7h-4q-0.6 0-0.6 0.7z"/><path class="a" d="m220.2 18.3c-0.2 0-0.4 0-0.5 0.2l-7.3 9.3c-0.2 0.4-0.7 0.4-0.9 0l-7.2-9.2c-0.1-0.2-0.2-0.3-0.4-0.3q-0.1 0-0.1 0h-4.1c-0.4 0-0.7 0.2-0.7 0.7v1.4q0 0.2 0.1 0.3l5.3 6.8 6 7.7q0.2 0.3 0.5 0.3h2.2q0.3 0 0.5-0.3l4.9-6.3c0.3-0.5 1.1-0.2 1.1 0.5v14.8c0 0.3 0.3 0.6 0.6 0.6h4.1c0.4 0 0.7-0.2 0.7-0.6v-25.2c0-0.5-0.3-0.7-0.7-0.7z"/><path class="a" d="m199 25.8v18.4c0 0.3 0.3 0.6 0.7 0.6h4.1c0.3 0 0.6-0.3 0.6-0.6v-13.1q0-0.2-0.2-0.4l-4-5.3c-0.4-0.5-1.2-0.3-1.2 0.4z"/><path class="a" d="m-122.8 44.1q0-0.2-0.1-0.4l-5.3-10c2.6-1 4.6-3.3 4.6-7v-0.5c0-6.2-4.7-8.2-10.7-8.2-2.5 0-5.5 0.2-7.1 0.4-1.1 0.2-1.6 0.5-1.6 1.7v23.7c0 0.4 0.3 0.7 0.7 0.7h4.6c0.4 0 0.7-0.3 0.7-0.7v-9c0.7 0 1.8 0.1 2.5 0.1h0.4l4.7 8.9c0.2 0.3 0.3 0.7 0.7 0.7h5.4c0.4 0 0.5-0.2 0.5-0.4zm-6.8-17.4c0 2.4-1.2 3.3-4.9 3.3-0.4 0-2.1 0-2.5 0v-6.8c0.4 0 2.3-0.1 2.7-0.1 3 0 4.7 1 4.7 3.1zm26.6-4.2v-3.3c0-0.4-0.2-0.6-0.7-0.7-1.2-0.2-3-0.5-6.8-0.5-4.6 0-8.6 1.2-8.6 7.6v18.2c0 0.4 0.3 0.7 0.7 0.7h4.6c0.4 0 0.7-0.3 0.7-0.7v-10.3h9.1c0.4 0 0.7-0.3 0.7-0.7v-3.3c0-0.4-0.3-0.7-0.7-0.7h-9.1v-3.2c0-1.8 0.6-2.4 2.2-2.4h7.2c0.4 0 0.7-0.3 0.7-0.7z"/><path class="a" d="m-86.9 43.5v-17.9c0-0.4-0.3-0.7-0.7-0.7h-1.7c-0.4 0-0.7 0.3-0.7 0.7v17.9c0 0.4 0.3 0.8 0.7 0.8h1.7c0.4 0 0.7-0.4 0.7-0.8zm20.1 0v-12.5c0-5.5-3.8-6.4-6.2-6.4h-2.5c-2.4 0-6.2 0.9-6.2 6.4v12.5c0 0.4 0.3 0.8 0.7 0.8h1.8c0.4 0 0.6-0.4 0.6-0.8v-12.5c0-2.7 0.7-3.7 3.1-3.7h2.5c2.4 0 3.1 1 3.1 3.7v12.5c0 0.4 0.2 0.8 0.6 0.8h1.8c0.4 0 0.7-0.4 0.7-0.8zm19.1-0.4v-24.7c0-0.4-0.3-0.7-0.7-0.7h-1.8c-0.4 0-0.6 0.3-0.6 0.7v6.6c-1.4-0.3-3.1-0.4-4.2-0.4-5.1 0-7.7 3.1-7.7 8.6v2.6c0 5.3 2.5 8.7 7.7 8.7 2.2 0 4.3-0.2 6.5-0.6 0.7-0.1 0.8-0.4 0.8-0.8zm-3.1-1.5c-1.2 0.1-3 0.2-4.2 0.2-3.5 0-4.6-2.2-4.6-6v-2.6c0-3.7 1.2-5.9 4.6-5.9 1.2 0 3 0.1 4.2 0.3zm22.8-6.8v-1.9c0-5.1-2.6-8.3-7.7-8.3-5.1 0-7.9 3.2-7.9 8.3v3.1c0 6.6 4 8.5 8 8.5 2.4 0 4.3-0.2 6.4-0.6 0.5-0.1 0.7-0.4 0.7-0.8v-1.2c0-0.4-0.3-0.5-0.6-0.5h-0.2c-1.6 0.2-4.2 0.4-6.3 0.4-3.2 0-4.9-1.6-4.9-5.8v-0.5h11.9c0.4 0 0.6-0.3 0.6-0.7zm-3.1-1.6h-9.4v-0.3c0-3.9 1.7-5.6 4.8-5.6 3.1 0 4.6 1.6 4.6 5.6zm22 10.6q0-0.2-0.1-0.4l-6.5-9.3 6-8.4q0.1-0.2 0.1-0.4c0-0.3-0.1-0.5-0.4-0.5h-2.1c-0.3 0-0.4 0.1-0.7 0.5l-4.5 6.7-4.5-6.7c-0.3-0.4-0.4-0.5-0.7-0.5h-2.3c-0.3 0-0.5 0.2-0.5 0.5q0 0.2 0.1 0.4l6 8.7-6.3 9c-0.1 0.2-0.2 0.4-0.2 0.5 0 0.2 0.2 0.3 0.4 0.3h2.2c0.3 0 0.3 0 0.6-0.3l5-7.3 5 7.3c0.2 0.3 0.3 0.3 0.5 0.3h2.5c0.3 0 0.4-0.1 0.4-0.4z"/><path class="a" d="m-89.1 8.3c-4.1 0.2-8.2 2-11.3 5.5l-1.5-1.7c3.8-4.1 8.7-6.1 13.6-6.1 4.9 0 9.9 2.1 13.7 6.2l-1.5 1.7c-3.4-3.8-7.8-5.6-12.2-5.6q-0.4 0-0.8 0z"/><path class="a" d="m-96.8 17.8l-1.4-1.6c2.7-3 6.3-4.5 9.9-4.5q0.7 0 1.3 0.1c3.2 0.3 6.3 1.8 8.7 4.5l-1.5 1.6c-2.4-2.6-5.4-3.9-8.5-3.9-3.1 0-6.1 1.3-8.5 3.8z"/><path class="a" d="m-88.3 19.7c-1.7 0-3.5 0.8-4.8 2.2l-1.5-1.6c1.8-1.9 4-2.9 6.3-2.9 2.3 0 4.5 1 6.3 2.9l-1.5 1.6c-1.2-1.2-2.6-2-4.2-2.1q-0.3-0.1-0.6-0.1z"/><path class="a" d="m27.8 7.4l-15.8 35.4c-0.3 0.5 0.1 1.1 0.7 1.1h9c0.4 0 0.6-0.2 0.8-0.5l16.4-35.4c0.3-0.5-0.1-1.1-0.7-1.1h-9.6c-0.3 0-0.6 0.2-0.8 0.5z"/></svg>