<svg version="1.2" xmlns="http://www.w3.org/2000/svg" viewBox="0 0 500 176" width="500" height="176">
	<title>rf-index(1)</title>
	<style>
		.s0 { fill: #000000 } 
	</style>
	<path class="s0" d="m170.5 0.9c-14.8 2.6-33.2 12.5-30.6 16.5 1.3 2.2 4 1.7 11.8-2.4 20.6-10.6 48.1-10.5 67.7 0.2 7.6 4.2 12 4.2 11.2 0.2-0.5-2.7-10.3-8.3-21-12-9-3.1-28.7-4.4-39.1-2.5zm-0.3 22.6c-9.3 2.6-18.1 7.8-18.1 10.7 0 4.2 3.5 4 11.8-0.2 7.5-3.9 8.9-4.2 21-4.2 12 0 13.7 0.3 22 4.3 9 4.3 11.7 4.1 10.8-0.5-1-5.3-20-12.3-33.3-12-3.9 0-10.3 0.9-14.2 1.9zm3.8 22.3q-9 2.8-9 6.6c0 3.9 1.9 4.2 11 1.2 9.1-3 13.1-2.7 23.6 1.5 3.7 1.6 4.4 1.6 5.5-0.1 1.9-3 1-4.2-5.2-7.5-5.9-2.9-18.7-3.7-25.9-1.7zm-165.4 27.2c-3.5 0.5-6.8 1.4-7.5 2.2-0.9 0.9-1.2 18.3-1.1 50.3l0.4 49h22l0.4-18.5 0.3-18.3h11.1l9.7 18.3 9.8 18.5 12.4 0.3c7 0.2 12.4-0.1 12.4-0.7 0-0.8-4.7-10.1-10.6-21-9.8-18.3-10.3-19.7-8-21 5.6-3 11.9-10.8 13.5-16.4 2.2-8 1.1-21.4-2.1-27.8-3.5-6.7-12.4-12.7-21.8-14.6-7.9-1.6-30.6-1.8-40.9-0.3zm32.9 19.6c6.8 1.8 9.9 5.7 9.9 12.3 0 4-0.9 6.5-3.1 9.1-2.9 3.4-4 3.6-14.2 4.2l-11.1 0.3v-12.7c0-7.1 0.4-13.3 0.9-13.7 1.3-1.4 12-1.1 17.6 0.5zm71.3-19.6c-10.2 2.7-16.4 8.4-18.8 16.9-0.7 2.9-1.1 20.6-1 44.8l0.4 39.8h21.9l0.4-21.1 0.3-20.9h17.3c9.5 0 18.2-0.4 19.4-0.8 2.5-1 2.9-14.6 0.5-17-1.1-1.1-7.3-1.6-19.4-1.6h-17.8v-8.1c0-12.8 0.4-13.1 21.5-13.8l17.9-0.7 0.3-7.2c0.3-5.3-0.1-7.6-1.6-8.9-2.4-2-35.1-3.1-41.3-1.4zm221.1 12.5l-0.4 13.8-11.8-0.3c-18.5-0.3-27.5 5-32.1 18.9-3.3 10.2-2.3 35 1.7 43.1 6 12.3 17.7 16.5 39.3 14.2 7.3-0.7 13.7-1.9 14.2-2.4 0.6-0.7 0.9-23.4 0.8-50.8l-0.4-49.6-5.5-0.3-5.4-0.4zm0 51.7l0.3 27.3-8 0.5c-17.3 1-23.1-2.3-25.7-14.3-2-9.4-0.9-28 1.9-33.5 3.4-6.3 7.5-8 20.2-7.6l10.9 0.3zm-154-62.6c-0.4 0.9-0.5 23.7-0.4 50.7l0.4 49.1h11.6v-100.8l-5.5-0.3c-3.7-0.3-5.7 0.1-6.1 1.3zm44 27.1c-2.9 1.6-6.2 5.1-7.7 8.1-2.6 4.8-2.7 7.2-2.7 34.9v29.7h11.6l0.6-30.8c0.8-36.4-0.1-34.4 16.3-34.4 8.5 0 11.1 0.5 13.6 2.4 3.1 2.5 3.1 2.8 3.7 32.7l0.6 30.1h10.4l0.4-29.1c0.2-28 0.2-29.3-2.6-34.7-4.9-9.7-8-11.1-24.7-11.5-13-0.3-15 0-19.5 2.6zm154.8-0.5c-6.5 3-13 10.3-14.7 16.6-0.8 2.7-1.4 11.9-1.4 20.4 0 13.7 0.4 16.3 3.1 22.2 6.1 12.8 18.7 17.4 40.5 14.7 6.9-0.7 13.1-2 13.6-2.5 0.6-0.7 0.9-2.8 0.6-4.8-0.2-2.9-1-3.6-2.9-3.5-1.4 0.1-9.1 0.4-17.1 0.5-11.6 0.3-15.1-0.1-17.7-1.9-4.9-3.1-7.2-7.4-8.1-14.9l-0.8-6.6h23.3c27.7 0 27 0.4 25.7-13.1-1.1-11.7-5.1-19.9-12.2-24.8-4.6-3.4-6.7-3.9-16-4.3-8.5-0.4-11.7 0-15.9 2zm23.3 10c4.9 2.3 8.4 9.3 8.4 16.7v4.5h-36.2v-3.9c0-6.2 3.9-14.2 8.3-16.9 4.9-3 13.7-3.2 19.5-0.4zm36-10.6c-0.4 0.9 4.7 9.5 11.2 18.8l11.8 17-5.6 8c-3.1 4.4-8.6 12.4-12.4 17.7-3.7 5.3-6.8 10.5-6.8 11.2 0 1.2 1.9 1.7 5.5 1.7l5.5-0.1 10.2-14.9 10-14.8 10.4 14.8 10.2 15h5.7c3.1 0 5.9-0.5 6.3-1 0.4-0.7-5.2-9.5-12.2-19.5-7.1-10.2-12.5-19.1-12-20 0.4-0.8 5.5-8 11.1-16.2 5.7-8.1 10.4-15.6 10.5-16.8 0.1-1.5-1-2-5-2-5.1 0-5.3 0.2-14.2 13.1-4.9 7.3-9.5 13.3-10 13.3-0.4 0-4.9-6-10.1-13.5-9-13.4-9.1-13.6-14.3-13.6-3.1 0-5.4 0.7-5.8 1.8z"/>
</svg>

