<svg viewBox="0 0 133.93202 38.500183" version="1.1" id="svg1" xml:space="preserve" xmlns="http://www.w3.org/2000/svg"><path style="font-weight:700;font-size:35.2778px;font-family:NeoTech;-inkscape-font-specification:'NeoTech Bold';stroke-width:.264583" d="M20.249458 38.076849c0-.105833-.03528-.246944-.105833-.388055l-5.326948-9.94834c2.575279-1.023057 4.550836-3.316114 4.550836-7.055561v-.458611c0-6.244171-4.621392-8.255006-10.6186183-8.255006-2.5400017 0-5.5386148.211667-7.1613937.458612C.49388914 12.606277-8e-8 12.923777-8e-8 14.123222v23.671405c0 .388056.31750022.705556.70555603.705556H5.2916702c.3880558 0 .705556-.3175.705556-.705556v-8.960562c.6702782 0 1.7638901.07056 2.5047239.07056l.3880558-.03528 4.7272251 8.925284c.176389.352778.317501.705556.705556.705556h5.397504c.388056 0 .529167-.176389.529167-.423334zm-6.879171-17.391956c0 2.398891-1.164168 3.351391-4.8683369 3.351391-.3880558 0-2.1166681-.03528-2.5047239-.07055v-6.773338c.4233336-.03528 2.2577793-.105833 2.7516685-.105833 2.9633353 0 4.6213923.987778 4.6213923 3.139724zm26.634751-4.233336v-3.280835c0-.458612-.211667-.635001-.705556-.705556-1.234723-.176389-2.998613-.458612-6.808616-.458612-4.550836 0-8.607783 1.12889-8.607783 7.54945v18.238623c0 .388056.3175.705556.705556.705556h4.586114c.388056 0 .705556-.3175.705556-.705556V27.493509h9.136951c.388056 0 .705556-.3175.705556-.705556v-3.351391c0-.388056-.3175-.705556-.705556-.705556h-9.136951v-3.175002c0-1.834446.599723-2.398891 2.257779-2.398891h7.161394c.388056 0 .705556-.3175.705556-.705556z" id="text1" aria-label="RF"/><path d="M56.109225 37.54768V19.556001c0-.388056-.3175-.705556-.705556-.705556h-1.693335c-.388055 0-.705556.3175-.705556.705556V37.54768c-.000005.388056.317496.705556.705551.705556h1.693335c.388056 0 .705556-.3175.705556-.705556zm20.07306 0V24.953505c0-5.432782-3.774725-6.350004-6.173616-6.350004h-2.504723c-2.398891 0-6.173616.917222-6.173616 6.350004V37.54768c-.000005.388056.24694.705556.634996.705556h1.834445c.388056 0 .635001-.3175.635001-.705556V24.953505c0-2.645835.670278-3.668892 3.069169-3.668892h2.504723c2.398891 0 3.069169 1.023057 3.069169 3.668892V37.54768c0 .388056.246945.705556.635001.705556h1.834445c.388056 0 .635001-.3175.635001-.705556zm19.085258-.458611V12.394607c0-.388055-.282223-.670278-.635001-.670278h-1.799168c-.388055 0-.670278.3175-.670278.670278v6.561672c-1.375834-.246945-3.033891-.352778-4.127503-.352778-5.150559 0-7.69056 3.104446-7.69056 8.643061v2.540002c0 5.29167 2.434168 8.713617 7.69056 8.713617 2.151946 0 4.303892-.176389 6.491116-.599723.635-.105833.740834-.352778.740834-.811389zm-3.104447-1.516946c-1.199445.105833-2.928057.211667-4.127503.211667-3.492502 0-4.586114-2.151946-4.586114-5.997226v-2.540002c0-3.774725 1.12889-5.926671 4.586114-5.926671 1.12889 0 2.963336.03528 4.127503.246945zm22.860034-6.808616v-1.905001c0-5.009448-2.61056-8.255005-7.76112-8.255005-5.04473 0-7.831671 3.210279-7.831671 8.255005v3.175002c0 6.561671 3.951111 8.466673 8.008061 8.466673 2.36361 0 4.30389-.211667 6.31473-.599723.56444-.105833.70555-.352778.70555-.811389v-1.199446c0-.352778-.28222-.493889-.56444-.493889h-.17639c-1.62278.246945-4.23334.388056-6.27945.388056-3.24556 0-4.90362-1.552223-4.90362-5.750282v-.493889h11.81807c.42333 0 .67028-.3175.67028-.776112zm-3.13973-1.587501h-9.34862v-.3175c0-3.810002 1.69334-5.538615 4.72723-5.538615 3.10445 0 4.62139 1.552224 4.62139 5.538615zm22.04863 10.689174c0-.141111-.0353-.282222-.14111-.423333l-6.45583-9.278062 5.92667-8.431395c.10583-.176389.17639-.3175.17639-.458611 0-.246945-.17639-.423334-.45862-.423334h-2.04611c-.3175 0-.42333.03528-.74083.493889l-4.51556 6.632227-4.48028-6.632227c-.24695-.388055-.42334-.493889-.70556-.493889h-2.29305c-.3175 0-.52917.176389-.52917.423334 0 .141111.0706.282222.17639.458611l5.99722 8.643062-6.35 9.066395c-.14111.176389-.17639.352778-.17639.458611 0 .211667.14111.352778.42333.352778h2.11667c.3175 0 .38806-.03528.59972-.352778l5.04473-7.302505 5.04473 7.373061c.14111.211666.24694.282222.49389.282222h2.43416c.35278 0 .45861-.176389.45861-.388056z" id="text2" style="-inkscape-font-specification:'Neo Tech Std';stroke-width:.264583" aria-label="index"/><style type="text/css" id="style1">.st0{fill:#000}</style><g id="g7" transform="translate(55.753238 -93.00093) scale(.41341)"><g id="g1"><path class="st0" d="M-4.5637534 230.55349c-9.9374486.51973-19.7182116 4.91446-27.3135826 13.20848l-3.551487-3.93106c9.073417-9.9141 20.976943-14.87448 32.8535317-14.87118 11.9783294-.001 23.9803443 5.04563 33.0759423 15.11251l-3.575133 3.90495c-8.117954-8.98358-18.7973879-13.47288-29.5008093-13.47605-.6627654 0-1.32698.0177-1.9884621.0522z" id="path4" style="stroke-width:.190872"/><path class="st0" d="m-22.999596 253.59096-3.549849-3.93135c6.61915-7.23373 15.310116-10.85452 23.9743426-10.85112 1.0928579 0 2.18539408.0568 3.27372188.17065 7.62229262.80334 15.05637652 4.42868 20.86189152 10.85549l-3.576793 3.90647c-5.657541-6.26356-13.0948959-9.38895-20.5588204-9.39212-7.3984307.001-14.7757106 3.07433-20.4244936 9.24122z" id="path5" style="stroke-width:.190872"/><path class="st0" d="M-2.5752913 258.19514c-4.1858646.002-8.3476697 1.73827-11.5422317 5.22458l-3.552746-3.93139c4.164903-4.55491 9.643509-6.83634 15.0951666-6.83461 5.4980421-.00093 11.0197875 2.32074 15.1967124 6.94463l-3.5738719 3.90638c-2.803369-3.09807-6.3666932-4.83646-10.04195352-5.22535-.52550938-.055-1.05393408-.0835-1.58107588-.0842z" id="path6" style="stroke-width:.190872"/></g></g></svg>