<svg xmlns="http://www.w3.org/2000/svg" version="1.1" xmlns:xlink="http://www.w3.org/1999/xlink" xmlns:svgjs="http://svgjs.dev/svgjs" width="1000" height="1000"><style>
    #light-icon {
      display: inline;
    }
    #dark-icon {
      display: none;
    }

    @media (prefers-color-scheme: dark) {
      #light-icon {
        display: none;
      }
      #dark-icon {
        display: inline;
      }
    }
  </style><g id="light-icon"><svg xmlns="http://www.w3.org/2000/svg" version="1.1" xmlns:xlink="http://www.w3.org/1999/xlink" xmlns:svgjs="http://svgjs.dev/svgjs" width="1000" height="1000"><g><g transform="matrix(26.14174120047424,0,0,26.14174120047424,0,0.000013070870693354664)"><svg xmlns="http://www.w3.org/2000/svg" version="1.1" xmlns:xlink="http://www.w3.org/1999/xlink" xmlns:svgjs="http://svgjs.dev/svgjs" width="38.252999" height="38.252998"><svg viewBox="0 0 38.252999 38.252998" version="1.1" id="svg1" xml:space="preserve" xmlns="http://www.w3.org/2000/svg"><path d="M20.501168 37.54768V19.556001c0-.388056-.3175-.705556-.705556-.705556h-1.693335c-.388055 0-.705556.3175-.705556.705556V37.54768c-.000005.388056.317496.705556.705551.705556h1.693335c.388056 0 .705556-.3175.705556-.705556z" id="text2" style="-inkscape-font-specification:'Neo Tech Std'" aria-label="index" stroke-width=".264583"></path><style type="text/css" id="style1">.st0{fill:#000}</style><g id="g7" transform="translate(20.145181 -93.00093) scale(.41341)"><g id="g1"><path class="st0" d="M-4.5637534 230.55349c-9.9374486.51973-19.7182116 4.91446-27.3135826 13.20848l-3.551487-3.93106c9.073417-9.9141 20.976943-14.87448 32.8535317-14.87118 11.9783294-.001 23.9803443 5.04563 33.0759423 15.11251l-3.575133 3.90495c-8.117954-8.98358-18.7973879-13.47288-29.5008093-13.47605-.6627654 0-1.32698.0177-1.9884621.0522z" id="path4" stroke-width=".190872"></path><path class="st0" d="m-22.999596 253.59096-3.549849-3.93135c6.61915-7.23373 15.310116-10.85452 23.9743426-10.85112 1.0928579 0 2.18539408.0568 3.27372188.17065 7.62229262.80334 15.05637652 4.42868 20.86189152 10.85549l-3.576793 3.90647c-5.657541-6.26356-13.0948959-9.38895-20.5588204-9.39212-7.3984307.001-14.7757106 3.07433-20.4244936 9.24122z" id="path5" stroke-width=".190872"></path><path class="st0" d="M-2.5752913 258.19514c-4.1858646.002-8.3476697 1.73827-11.5422317 5.22458l-3.552746-3.93139c4.164903-4.55491 9.643509-6.83634 15.0951666-6.83461 5.4980421-.00093 11.0197875 2.32074 15.1967124 6.94463l-3.5738719 3.90638c-2.803369-3.09807-6.3666932-4.83646-10.04195352-5.22535-.52550938-.055-1.05393408-.0835-1.58107588-.0842z" id="path6" stroke-width=".190872"></path></g></g></svg></svg></g></g></svg></g><g id="dark-icon"><svg xmlns="http://www.w3.org/2000/svg" version="1.1" xmlns:xlink="http://www.w3.org/1999/xlink" xmlns:svgjs="http://svgjs.dev/svgjs" width="1000" height="1000"><g><g transform="matrix(26.14174120047424,0,0,26.14174120047424,0,0.000013070870693354664)"><svg xmlns="http://www.w3.org/2000/svg" version="1.1" xmlns:xlink="http://www.w3.org/1999/xlink" xmlns:svgjs="http://svgjs.dev/svgjs" width="38.252999" height="38.252998"><svg viewBox="0 0 38.252999 38.252998" version="1.1" id="svg1" xml:space="preserve" xmlns="http://www.w3.org/2000/svg"><path d="M20.501168 37.54768V19.556001c0-.388056-.3175-.705556-.705556-.705556h-1.693335c-.388055 0-.705556.3175-.705556.705556V37.54768c-.000005.388056.317496.705556.705551.705556h1.693335c.388056 0 .705556-.3175.705556-.705556z" id="text2" style="-inkscape-font-specification:'Neo Tech Std';fill:#fff;stroke-width:.264583" aria-label="index"></path><style type="text/css" id="style1">.st0{fill:#000}</style><g id="g7" transform="translate(20.145181 -93.00093) scale(.41341)"><g id="g1"><path class="st0" d="M-4.5637534 230.55349c-9.9374486.51973-19.7182116 4.91446-27.3135826 13.20848l-3.551487-3.93106c9.073417-9.9141 20.976943-14.87448 32.8535317-14.87118 11.9783294-.001 23.9803443 5.04563 33.0759423 15.11251l-3.575133 3.90495c-8.117954-8.98358-18.7973879-13.47288-29.5008093-13.47605-.6627654 0-1.32698.0177-1.9884621.0522z" id="path4" style="fill:#fff;stroke-width:.190872"></path><path class="st0" d="m-22.999596 253.59096-3.549849-3.93135c6.61915-7.23373 15.310116-10.85452 23.9743426-10.85112 1.0928579 0 2.18539408.0568 3.27372188.17065 7.62229262.80334 15.05637652 4.42868 20.86189152 10.85549l-3.576793 3.90647c-5.657541-6.26356-13.0948959-9.38895-20.5588204-9.39212-7.3984307.001-14.7757106 3.07433-20.4244936 9.24122z" id="path5" style="fill:#fff;stroke-width:.190872"></path><path class="st0" d="M-2.5752913 258.19514c-4.1858646.002-8.3476697 1.73827-11.5422317 5.22458l-3.552746-3.93139c4.164903-4.55491 9.643509-6.83634 15.0951666-6.83461 5.4980421-.00093 11.0197875 2.32074 15.1967124 6.94463l-3.5738719 3.90638c-2.803369-3.09807-6.3666932-4.83646-10.04195352-5.22535-.52550938-.055-1.05393408-.0835-1.58107588-.0842z" id="path6" style="fill:#fff;stroke-width:.190872"></path></g></g></svg></svg></g></g></svg></g></svg>